<?xml version="1.0" ?><!DOCTYPE svg  PUBLIC '-//W3C//DTD SVG 1.1//EN'  'http://www.w3.org/Graphics/SVG/1.1/DTD/svg11.dtd'><svg enable-background="new 0 0 512 512" height="512px" id="Think_Out_OF_the_Box" version="1.1" viewBox="0 0 512 512" width="512px" xml:space="preserve" xmlns="http://www.w3.org/2000/svg" xmlns:xlink="http://www.w3.org/1999/xlink"><g id="Think_Out_OF_the_Box_1_"><path d="M255.979,5.729c138.025,0,249.943,112.029,249.943,250.189   S394.004,506.106,255.979,506.106S6.032,394.079,6.032,255.919S117.954,5.729,255.979,5.729z" fill="#33CC99" id="Background"/><g><g><path d="M263.479,3.328c31.207,0.599,55.512,30.934,55.21,57.366c-0.598,26.729-13.503,41.446-31.805,50.457l0,0     l-49.211-0.9c-19.201-9.311-32.102-29.133-31.504-51.661C206.768,27.355,232.574,2.727,263.479,3.328z M286.885,111.151     c0,0.301,0,0.301,0,0.301S286.885,111.453,286.885,111.151z M237.075,137.883v-0.301l0.598-26.729c0-0.302,0-0.302,0-0.601l0,0     c0,0.299,0,0.601,0,0.601L237.075,137.883z" fill="#FFCC29"/><path d="M286.885,111.151c0,0.601,0,0.301,0,0.902l-0.603,30.934c-0.297,6.61-4.798,12.016-10.5,11.714     l-28.805-0.601c-5.401,0-9.902-5.406-9.902-12.014l0.598-31.235c0,0,0-0.302,0-0.601l0,0L286.885,111.151z" fill="#BDBFC1"/><path d="M237.572,115.689l49.948,1.028c1.782,0.037,3.194,1.497,3.158,3.263l0,0     c-0.037,1.766-1.506,3.167-3.288,3.131l-49.948-1.029c-1.778-0.035-3.195-1.497-3.158-3.263l0,0     C234.32,117.054,235.793,115.653,237.572,115.689z" fill="#A9ABAE"/><path d="M237.315,128.126l49.952,1.029c1.778,0.037,3.194,1.497,3.158,3.263l0,0     c-0.037,1.766-1.511,3.167-3.293,3.131l-49.948-1.027c-1.783-0.037-3.195-1.499-3.158-3.263l0,0     C234.063,129.493,235.537,128.09,237.315,128.126z" fill="#A9ABAE"/><path d="M237.079,139.783l49.948,1.027c1.778,0.037,3.194,1.499,3.158,3.265l0,0     c-0.037,1.764-1.51,3.165-3.293,3.13l-49.948-1.028c-1.778-0.037-3.195-1.497-3.158-3.263l0,0     C233.823,141.148,235.297,139.747,237.079,139.783z" fill="#A9ABAE"/><polygon fill="#FFF212" points="248.479,55.286 278.484,55.887 280.585,55.887 280.585,58.291 279.384,111.151 275.185,110.852      276.084,60.393 250.579,59.792 249.378,110.55 244.877,110.251 246.375,57.39 246.375,55.286    "/><path d="M321.99,60.994c0.301-15.018-6.602-30.036-16.503-40.847C294.687,8.133,279.682,0.324,263.479,0.022     c-33.005-0.9-60.309,25.53-60.912,58.269c-0.301,22.827,12.006,43.55,31.508,54.063v0.601c-1.799,1.202-3.3,3.304-3.3,5.707     c0,2.401,1.2,4.805,3.3,6.007v0.9c-2.1,1.202-3.602,3.304-3.602,5.707c0,2.401,1.201,4.505,3.3,5.705v0.302     c-2.1,0.9-3.3,3.002-3.598,5.705c0,3.004,2.1,5.708,5.1,6.308c2.1,4.805,6.3,8.109,11.701,8.41l28.805,0.601     c5.1,0,9.601-3.304,12.002-7.51c3.301-0.601,5.701-3.304,6.003-6.608c0-2.401-1.502-4.805-3.301-6.006     c2.1-0.9,3.301-3.304,3.301-5.706c0.297-2.705-1.502-5.106-3.903-6.308c2.401-0.9,4.2-3.304,4.2-6.007     c0-2.703-1.498-5.106-3.898-6.308v-0.601C311.189,102.441,321.392,85.022,321.99,60.994z M287.483,116.858     c1.803,0,3.3,1.501,3.3,3.002c0,1.803-1.497,3.304-3.3,3.304h-0.899v6.009h0.602c1.799,0,3.301,1.501,3.301,3.304     c0,1.801-1.502,3.002-3.301,3.002h-0.903v5.406h0.903c1.498,0,3,1.503,3,3.304c0,1.503-1.502,3.004-3.301,3.004h-1.502     c-1.497,4.506-5.4,7.508-9.601,7.508l-28.805-0.601c-4.2,0-8.099-3.304-9.304-7.81h-0.895c-1.502,0-3.004-1.501-3.004-3.304     c0-1.8,1.502-3.304,3.301-3.304v-2.102l0.301-3.002h-0.301c-1.799,0-3-1.503-3-3.304c0-1.803,1.498-3.304,3.301-3.004v-6.306     c-1.803,0-3-1.503-3-3.004c0-1.803,1.498-3.304,3.296-3.304v-4.805c0,0,0-0.302,0-0.601     c-19.201-9.311-32.102-29.133-31.504-51.661c0.598-31.235,26.405-55.863,57.31-55.262c31.207,0.599,55.512,30.934,55.21,57.366     c-0.598,26.729-13.503,41.446-31.805,50.457c0,0.301,0,0.301,0,0.301s0,0.299,0,0.601l-0.301,4.503L287.483,116.858z" fill="#4E5A62"/></g><g><path d="M81.648,84.12c15.603-3.905,31.805,8.109,35.105,21.324c3.3,13.517-0.899,22.528-9.002,29.435v0.302     l-24.903,6.007c-10.805-2.102-19.803-10.213-22.501-21.625C56.444,103.943,66.044,88.025,81.648,84.12z M107.751,135.18     L107.751,135.18L107.751,135.18z M86.45,155.003L86.45,155.003l-3.305-13.517v-0.299l0,0v0.299L86.45,155.003z" fill="#FFCC29"/><path d="M107.751,135.18c0,0,0,0,0,0.299l3.903,15.619c0.899,3.304-0.899,6.607-3.602,7.208l-14.403,3.603     c-3,0.601-6.003-1.501-6.601-4.805l-3.903-15.619v-0.299h-0.297L107.751,135.18z" fill="#BDBFC1"/><path d="M83.691,143.904l25.135-6.19c0.895-0.22,1.799,0.32,2.019,1.21l0,0c0.215,0.888-0.334,1.786-1.229,2.008     l-25.135,6.19c-0.896,0.22-1.799-0.322-2.019-1.21l0,0C82.242,145.024,82.795,144.126,83.691,143.904z" fill="#A9ABAE"/><path d="M85.229,150.163l25.131-6.19c0.899-0.22,1.803,0.32,2.019,1.21l0,0c0.216,0.888-0.33,1.786-1.225,2.008     l-25.135,6.19c-0.895,0.22-1.799-0.322-2.019-1.21l0,0C83.78,151.284,84.33,150.385,85.229,150.163z" fill="#A9ABAE"/><path d="M86.67,156.029l25.135-6.19c0.895-0.22,1.799,0.32,2.019,1.208l0,0c0.22,0.89-0.334,1.788-1.229,2.008     l-25.135,6.192c-0.896,0.22-1.799-0.322-2.019-1.21l0,0C85.225,157.149,85.774,156.25,86.67,156.029z" fill="#A9ABAE"/><polygon fill="#FFF212" points="81.045,112.353 96.051,108.448 97.251,108.149 97.552,109.349 104.153,136.081 101.752,136.38      95.75,111.151 82.848,114.156 88.851,139.684 86.751,140.285 80.15,113.555 79.849,112.353    "/><path d="M113.156,148.094c0.896-0.9,1.196-2.102,0.896-3.304c-0.297-1.501-1.498-2.401-2.698-2.703     c0.899-0.9,1.501-2.102,1.2-3.603c-0.301-1.503-1.498-2.403-2.702-2.703v-0.301c9.002-8.109,11.705-18.02,8.701-30.335     c-1.799-7.508-7.199-14.115-13.801-18.322c-6.898-4.505-15.302-6.306-23.706-4.505c-16.499,4.206-26.702,21.024-22.501,37.543     c2.698,11.415,11.7,20.124,23.104,22.827v0.299c-0.899,0.902-1.201,2.104-0.899,3.304c0.297,1.202,1.2,2.104,2.397,2.404v0.601     c-0.896,0.9-1.197,2.102-0.896,3.304c0.297,1.202,1.197,2.102,2.401,2.404v0.299c-0.904,0.601-1.205,1.803-0.904,3.304     c0.301,1.503,1.799,2.403,3.301,2.403c1.803,2.102,4.204,3.304,6.902,2.703l14.403-3.603c2.702-0.601,4.501-3.004,5.099-5.408     c1.502-0.601,2.401-2.401,2.104-4.204C115.256,149.295,114.352,148.395,113.156,148.094z M112.553,153.2h-0.602     c-0.297,2.403-1.799,4.505-3.899,5.106l-14.403,3.603c-2.397,0.601-4.501-0.601-5.702-2.703H87.35     c-0.899,0.301-1.803-0.3-1.803-1.202c-0.297-0.9,0.301-1.8,1.205-2.102l-0.301-0.9l-0.301-1.501c-0.899,0-1.799-0.301-2.1-1.202     c-0.301-0.902,0.301-1.803,1.201-2.104l-0.598-3.002H84.35c-0.903,0.299-1.803-0.301-1.803-1.202     c-0.297-0.9,0.301-1.803,1.2-2.102l-0.602-2.403v-0.299h-0.297c-10.805-2.102-19.803-10.213-22.501-21.625     c-3.903-15.619,5.698-31.537,21.301-35.441c15.603-3.905,31.805,8.109,35.105,21.324c3.3,13.517-0.899,22.528-9.002,29.435v0.302     c0,0,0,0,0,0.299l0.603,2.403l0.602-0.301c0.896,0,1.799,0.601,1.799,1.202c0.301,0.9-0.301,1.803-1.205,2.102h-0.297     l0.598,3.304l0.603-0.299c0.899,0,1.799,0.299,1.799,1.202c0.301,0.9-0.301,1.801-1.197,2.102h-0.301l0.599,2.703h0.598     c0.602-0.299,1.803,0.299,1.803,1.202C114.051,151.999,113.453,152.901,112.553,153.2z" fill="#4E5A62"/></g><g><path d="M412.306,10.836c17.402,5.106,26.706,26.131,22.506,41.146c-4.2,14.718-13.805,21.326-25.505,23.728     h-0.302L381.4,67.601c-9.3-8.109-13.801-21.324-9.901-34.24C376.301,15.942,394.903,5.729,412.306,10.836z M409.005,75.71     L409.005,75.71L409.005,75.71z M376.899,83.22L376.899,83.22L381.4,67.9c0,0,0,0,0-0.299l0,0c0,0.299,0,0.299,0,0.299     L376.899,83.22z" fill="#FFCC29"/><path d="M409.005,75.71c0,0.301,0,0,0,0.301l-5.099,17.721c-0.899,3.604-4.501,5.706-7.802,4.805L380.2,94.031     c-3.301-0.9-5.1-4.805-3.899-8.41l5.1-17.721c0,0,0,0,0-0.299l0,0L409.005,75.71z" fill="#BDBFC1"/><path d="M380.513,70.697l28.195,8.186c1.006,0.293,1.583,1.336,1.294,2.334l0,0     c-0.284,0.996-1.334,1.566-2.34,1.275l-28.195-8.186c-1.005-0.292-1.583-1.336-1.294-2.333l0,0     C378.462,70.976,379.508,70.406,380.513,70.697z" fill="#A9ABAE"/><path d="M378.482,77.716l28.191,8.186c1.005,0.293,1.587,1.336,1.298,2.334l0,0     c-0.289,0.996-1.339,1.569-2.344,1.275l-28.191-8.186c-1.005-0.292-1.587-1.336-1.299-2.333l0,0     C376.427,77.995,377.478,77.425,378.482,77.716z" fill="#A9ABAE"/><path d="M376.573,84.297l28.191,8.186c1.005,0.292,1.587,1.336,1.298,2.332l0,0     c-0.288,0.998-1.339,1.568-2.344,1.277l-28.191-8.186c-1.005-0.292-1.587-1.336-1.298-2.333l0,0     C374.519,84.576,375.568,84.006,376.573,84.297z" fill="#A9ABAE"/><polygon fill="#FFF212" points="395.803,38.167 412.908,42.974 414.108,43.273 413.808,44.774 405.106,74.51 402.404,73.608      410.809,45.076 396.405,40.872 388.001,69.404 385.601,68.803 394.306,39.069 394.603,37.565    "/><path d="M433.611,26.754c-4.502-8.41-11.701-15.317-20.703-17.721c-18.603-5.406-38.109,5.106-43.51,23.728     c-3.602,12.916,0,26.43,9.601,35.441v0.601c-1.196,0.3-2.396,1.202-2.698,2.703c-0.603,1.202,0,2.703,0.899,3.603l-0.301,0.601     c-1.201,0.301-2.397,1.202-2.698,2.705c-0.302,1.501,0,2.703,0.899,3.902c-1.201,0.302-2.401,1.202-2.702,2.705     c-0.599,1.8,0,3.603,1.501,4.503c0.603,3.004,2.703,5.408,5.702,6.308l16.201,4.805c2.703,0.902,5.702-0.3,7.802-2.401     c2.101,0.299,3.903-0.902,4.501-2.705c0.302-1.501,0-3.002-0.899-3.903c1.201-0.301,2.401-1.503,2.698-2.705     c0.603-1.8,0-3.304-1.196-4.204c1.498-0.3,2.698-1.501,3.301-3.002c0.297-1.503,0-3.004-1.2-3.905v-0.601     c13.499-2.703,21.903-11.113,26.103-24.629C439.313,43.874,437.51,34.563,433.611,26.754z M434.812,51.982     c-4.2,14.718-13.805,21.326-25.505,23.728h-0.302c0,0.301,0,0.301,0,0.301l-0.598,2.703l0.301,0.299     c0.899,0.301,1.498,1.202,1.196,2.104c-0.297,1.2-1.196,1.801-2.1,1.501l-0.599-0.302l-0.899,3.605h0.298     c1.2,0.299,1.803,1.202,1.501,2.403c-0.301,0.9-1.501,1.501-2.4,1.2h-0.599l-0.899,2.703l0.599,0.301     c0.899,0.299,1.501,1.202,1.2,2.403c-0.301,0.9-1.2,1.501-2.401,1.2l-0.598-0.299c-1.502,2.404-4.204,3.604-6.902,2.703     L380.2,94.031c-2.698-0.9-4.2-3.304-4.2-6.006h-0.599c-0.899-0.3-1.502-1.501-1.2-2.404c0.301-0.9,1.497-1.501,2.401-1.2     l0.297-1.202l0.603-1.803c-1.201-0.299-1.804-1.501-1.502-2.403c0.301-0.9,1.502-1.501,2.401-1.2l1.2-3.605h-0.301     c-0.899-0.299-1.498-1.202-1.201-2.102c0.302-1.202,1.502-1.802,2.401-1.501L381.4,67.9c0,0,0,0,0-0.299     c-9.3-8.109-13.801-21.324-9.901-34.24c4.802-17.419,23.404-27.632,40.807-22.525S439.012,36.967,434.812,51.982z" fill="#4E5A62"/></g><g><polygon fill="#FFB74D" points="92.449,299.769 329.792,324.097 319.589,506.709 114.653,461.955    "/><polygon fill="#E6A545" points="408.407,271.839 329.792,324.097 319.589,506.709 394.603,407.596    "/><polygon fill="#E6A545" points="235.276,261.325 92.449,299.769 5.434,274.842 167.764,243.604    "/><polygon fill="#E6A545" points="408.407,271.839 426.11,219.276 257.778,213.87 235.276,261.325    "/><polygon fill="#E6A545" points="329.792,324.097 469.319,352.931 506.524,288.957 408.407,271.839    "/><polygon fill="none" points="92.449,299.769 329.792,324.097 408.407,271.839 235.276,261.325    "/><polygon fill="#CF953E" points="235.276,261.325 235.573,314.487 92.449,299.769    "/><polygon fill="#CF953E" points="329.792,324.097 408.407,271.839 235.276,261.325 235.573,314.487    "/><path d="M287.784,271.236v48.656l-5.702-0.599v-53.162h34.508l-27.906-44.754l-27.902-44.75l-27.906,44.75     l-27.906,44.754h34.508v48.656l-5.702-0.603v-42.949h-28.806c-1.798,0-3.597-0.9-4.802-2.701c-0.895-1.503-0.895-3.304,0-5.108     l55.813-89.202c0.899-1.803,2.703-2.703,4.802-2.703c2.101,0,3.899,0.9,4.799,2.703l55.812,89.202     c1.201,1.805,1.201,3.605,0,5.108c-0.899,1.801-2.702,2.701-4.802,2.701H287.784z" fill="#4E5A62"/><polygon fill="#99CCCC" points="260.781,176.628 288.684,221.378 316.59,266.132 282.082,266.132 282.082,360.141      239.477,360.141 239.477,266.132 204.969,266.132 232.875,221.378    "/><path d="M393.402,208.464l-24.903,86.2c-0.899,2.701-3.898,4.204-6.902,3.605l-41.104-10.213     c-3.003-0.9-4.802-3.605-3.902-6.307l24.902-86.202l-27.902-6.907c-2.1-0.302-3.3-1.803-3.902-3.605     c-0.599-1.8,0-3.603,1.502-5.104l78.615-72.686c1.497-1.501,3.598-2.102,5.4-1.501c2.1,0.601,3.598,1.802,4.2,3.603     l28.806,99.716c0.301,1.803,0,3.604-1.502,5.106c-1.498,1.2-3.602,1.801-5.4,1.2L393.402,208.464z M393.703,110.852     l14.704,49.856l14.402,49.559l-33.307-8.111l-26.404,91.005l-41.108-10.209l26.404-91.007l-33.307-8.111l39.31-36.641     L393.703,110.852z" fill="#4E5A62"/><polygon fill="#99CCCC" points="393.703,110.852 408.407,160.708 422.81,210.267 389.503,202.156 363.099,293.161      321.99,282.952 348.395,191.945 315.088,183.834 354.397,147.193    "/><path d="M167.161,248.11l39.606,63.375l-6.898-0.603l-40.506-64.575l30.002-15.918l-48.308-25.83L92.75,178.73     v51.659v51.361l29.705-15.92l24.602,39.646l-6.898-0.599l-19.803-31.84l-24.903,13.215c-1.803,0.904-3.903,0.904-5.404,0     c-1.799-0.9-3-2.399-3-4.502V178.73c0-1.802,1.201-3.605,3-4.505c1.501-0.9,3.602-0.9,5.404,0l96.616,51.659     c1.799,0.902,2.702,2.404,2.702,4.506c0,1.802-0.903,3.304-2.702,4.206L167.161,248.11z" fill="#4E5A62"/><polygon fill="#99CCCC" points="92.75,178.73 141.058,204.56 189.366,230.389 159.363,246.307 210.374,327.702 173.465,347.524      122.455,265.83 92.75,281.75 92.75,230.389    "/><polygon fill="#E6A545" points="18.937,359.538 272.481,399.485 325.291,323.795 92.449,299.769    "/><path d="M511.322,286.554c-0.598-1.499-2.1-2.403-3.898-2.701l-91.817-15.92l15.604-47.153     c0.603-1.503,0.301-3.004-0.599-4.506c-0.903-1.202-2.4-2.102-3.902-2.102c1.502-1.503,1.803-3.304,1.502-5.106l-28.806-99.716     c-0.603-1.801-2.101-3.002-4.2-3.603c-1.803-0.601-3.903,0-5.4,1.501l-78.615,72.686c-1.502,1.501-2.101,3.304-1.502,5.104     c0.603,1.803,1.803,3.304,3.902,3.605l27.902,6.907l-4.497,15.619l-49.211-1.501l-22.204-35.441     c-0.899-1.803-2.698-2.703-4.799-2.703c-2.1,0-3.903,0.9-4.802,2.703l-46.81,74.785l-29.404-7.807l12.303-6.607     c1.799-0.902,2.702-2.404,2.702-4.206c0-2.102-0.903-3.604-2.702-4.506l-96.616-51.659c-1.803-0.9-3.903-0.9-5.404,0     c-1.799,0.9-3,2.703-3,4.505v75.087L4.534,269.733c-2.702,0.301-4.501,2.403-4.501,4.807c-0.301,2.403,1.498,4.506,3.899,5.104     l77.415,22.527l-66.313,53.464c-1.498,1.201-2.1,3.304-1.498,5.405c0.598,1.801,2.1,3.304,4.501,3.605l79.213,12.612l11.705,85.3     c0.297,2.403,2.1,3.902,4.2,4.506l204.936,44.749c2.4,0.604,4.501-0.301,5.998-2.102l75.014-99.114     c0.603-0.899,0.899-1.8,0.899-2.704l6.602-62.471l61.514,12.616c2.401,0.599,5.1-0.603,6.3-2.705l36.904-63.974     C512.227,289.857,512.227,288.057,511.322,286.554z M469.319,352.931l-67.814-14.115l-6.902,68.78l-75.014,99.113     l-204.936-44.754l-12.303-89.202l-83.414-13.215l73.512-59.77L5.434,274.842l87.316-16.82v-27.632V178.73l48.308,25.83     l48.308,25.83l-26.706,14.117l5.104-0.902l44.107,11.714l21.004-33.94l27.906-44.75l23.702,38.143l56.712,1.803l7.199-24.628     l-33.307-8.111l39.31-36.641l39.306-36.341l14.704,49.856l14.402,49.559l-33.307-8.111l-4.501,15.918l41.108,1.202     l-17.703,52.563l98.117,17.118L469.319,352.931z M414.406,213.571l-22.205-0.601l1.201-4.505L414.406,213.571z" fill="#4E5A62"/><polygon fill="none" points="393.402,208.464 392.201,212.97 414.406,213.571    "/></g></g></g></svg>